<?xml version="1.0" encoding="UTF-8"?>
<svg xmlns="http://www.w3.org/2000/svg" version="1.1" viewBox="0 0 800 800">
  <!-- Generator: Adobe Illustrator 29.3.1, SVG Export Plug-In . SVG Version: 2.1.0 Build 151)  -->
  <defs>
    <style>
      .st0 {
        fill: #a4a6a7;
      }

      .st1 {
        fill: #cd412b;
      }

      .st2 {
        fill: #1e2020;
      }
    </style>
  </defs>
  <g id="Layer_1">
    <path class="st0" d="M-561.3,349.49h50.17v50.45h-50.17v-50.45ZM-598.09,312.99v174.01h36.92v-50.57h14.23v50.57h72.74v-36.5h-35.82v-14.07h35.82v-123.45h-123.88Z"/>
    <polygon class="st0" points="-368.85 312.99 -368.85 450.51 -419.02 450.51 -419.02 312.99 -455.81 312.99 -455.81 487.01 -332.06 487.01 -332.06 312.99 -368.85 312.99"/>
    <polygon class="st0" points="-313.66 312.99 -313.66 418.25 -226.7 418.25 -226.7 450.51 -313.66 450.51 -313.66 487.01 -189.78 487.01 -189.78 381.75 -276.74 381.75 -276.74 349.49 -189.78 349.49 -189.78 312.99 -313.66 312.99"/>
    <polygon class="st0" points="-171.38 312.99 -171.38 349.49 -127.84 349.49 -127.84 487.01 -91.04 487.01 -91.04 349.49 -47.5 349.49 -47.5 312.99 -171.38 312.99"/>
    <g>
      <rect class="st1" x="-792.5" y="312.99" width="176.01" height="174.01"/>
      <polygon class="st2" points="-734.85 391.45 -772.26 385.39 -772.26 422.25 -734.85 416.19 -734.85 391.45"/>
      <rect class="st2" x="-728.6" y="391.45" width="12.51" height="24.62"/>
      <polygon class="st2" points="-688.12 369.99 -681.99 333 -719.28 333 -713.14 369.99 -688.12 369.99"/>
      <rect class="st2" x="-713.14" y="376.17" width="24.9" height="12.37"/>
      <polygon class="st2" points="-700.63 395.08 -709.48 403.82 -700.63 412.57 -691.79 403.82 -700.63 395.08"/>
      <polygon class="st2" points="-685.18 436.44 -663.22 467 -636.73 440.81 -667.64 419.1 -685.18 436.44"/>
      <polygon class="st2" points="-680.83 406.02 -698.43 423.43 -689.59 432.18 -671.98 414.77 -680.83 406.02"/>
    </g>
  </g>
  <g id="Layer_2">
    <g>
      <rect class="st1" x="48.52" y="52.5" width="702.96" height="695"/>
      <polygon class="st2" points="278.76 365.85 129.35 341.64 129.35 488.87 278.76 464.66 278.76 365.85"/>
      <rect class="st2" x="303.75" y="365.85" width="49.96" height="98.31"/>
      <polygon class="st2" points="465.4 280.13 489.89 132.41 340.97 132.41 365.46 280.13 465.4 280.13"/>
      <rect class="st2" x="365.46" y="304.83" width="99.44" height="49.4"/>
      <polygon class="st2" points="415.42 380.34 380.09 415.27 415.42 450.2 450.75 415.27 415.42 380.34"/>
      <polygon class="st2" points="477.16 545.54 564.84 667.59 670.66 562.97 547.21 476.28 477.16 545.54"/>
      <polygon class="st2" points="494.54 424.06 424.22 493.58 459.55 528.51 529.87 458.99 494.54 424.06"/>
    </g>
  </g>
</svg>